<?xml version="1.0" encoding="UTF-8" standalone="no"?>
<svg width="512px" height="512px" viewBox="0 0 512 512" version="1.1" xmlns="http://www.w3.org/2000/svg" xmlns:xlink="http://www.w3.org/1999/xlink">
    <!-- Generator: Sketch 41 (35326) - http://www.bohemiancoding.com/sketch -->
    <title>close</title>
    <desc>Created with Sketch.</desc>
    <defs></defs>
    <g id="svg-icons" stroke="none" stroke-width="1" fill="none" fill-rule="evenodd">
        <g id="close" fill="#3E3D3F">
            <g transform="translate(-1.000000, 0.000000)">
                <path d="M13.9606525,70.4914408 L442.507542,499.084835 C458.407459,514.986478 484.186319,514.986478 500.086237,499.084835 C515.986154,483.183192 515.986154,457.401535 500.086237,441.499892 L71.5393475,12.9064974 C55.6394299,-2.99514566 29.8605701,-2.99514566 13.9606525,12.9064974 C-1.93926511,28.8081404 -1.93926511,54.5897977 13.9606525,70.4914408 Z" id="Line"></path>
                <path d="M441.460652,12.9064974 L12.9137632,441.499892 C-2.9861544,457.401535 -2.9861544,483.183192 12.9137632,499.084835 C28.8136808,514.986478 54.5925406,514.986478 70.4924582,499.084835 L499.039348,70.4914408 C514.939265,54.5897977 514.939265,28.8081404 499.039348,12.9064974 C483.13943,-2.99514566 457.36057,-2.99514566 441.460652,12.9064974 Z" id="Line-Copy-8"></path>
            </g>
        </g>
    </g>
</svg>