<?xml version="1.0" encoding="UTF-8" standalone="no"?>
<svg width="512px" height="512px" viewBox="0 0 512 512" version="1.1" xmlns="http://www.w3.org/2000/svg" xmlns:xlink="http://www.w3.org/1999/xlink">
    <!-- Generator: Sketch 41 (35326) - http://www.bohemiancoding.com/sketch -->
    <title>chat</title>
    <desc>Created with Sketch.</desc>
    <defs></defs>
    <g id="svg-icons" stroke="none" stroke-width="1" fill="none" fill-rule="evenodd">
        <g id="chat" fill="#3E3D3F">
            <path d="M325.551092,340.265799 L325.551092,348.156718 C325.519962,373.295927 305.09921,393.667538 279.89936,393.698594 L149.102626,393.698594 L101.586405,441.156835 C95.8931078,446.795548 87.3612082,448.469624 79.9513434,445.40193 C72.5414786,442.334236 67.7048143,435.125557 67.6866034,427.122272 L67.6866034,393.754957 L45.6517325,393.754957 C20.4518826,393.723902 0.0311301775,373.35229 0,348.213082 L0,199.300167 C0.0311301775,174.160959 20.4518826,153.789347 45.6517325,153.758292 L151.419113,153.758292 C157.659894,153.758292 162.719047,158.80527 162.719047,165.031034 C162.719047,171.256797 157.659894,176.303775 151.419113,176.303775 L45.5952328,176.303775 C32.8769264,176.334758 22.5744262,186.612467 22.5433679,199.300167 L22.5433679,348.213082 C22.5744262,360.900783 32.8769264,371.178491 45.5952328,371.209474 L78.9300375,371.209474 C85.1708186,371.209474 90.2299713,376.256453 90.2299713,382.482216 L90.2299713,420.640446 L136.446701,374.478569 C138.569938,372.347799 141.457969,371.15073 144.469653,371.153111 L280.068859,371.153111 C292.787165,371.122127 303.089666,360.844419 303.120724,348.156718 L303.120724,340.265799 C303.818324,334.615641 308.629321,330.37109 314.335908,330.37109 C320.042496,330.37109 324.853493,334.615641 325.551092,340.265799 L325.551092,340.265799 Z M512,111.541875 L512,260.45479 C511.96887,285.593998 491.548117,305.96561 466.348267,305.996665 L444.313397,305.996665 L444.313397,339.420344 C444.295186,347.423629 439.458521,354.632308 432.048657,357.700001 C424.638792,360.767695 416.106892,359.09362 410.413595,353.454907 L362.897374,305.996665 L232.04414,305.996665 C206.844291,305.96561 186.423538,285.593998 186.392408,260.45479 L186.392408,111.541875 C186.423538,86.4026669 206.844291,66.0310553 232.04414,66 L466.291768,66 C491.513679,65.9999808 511.968823,86.3806775 512,111.541875 L512,111.541875 Z M489.400132,111.541875 C489.369074,98.8541745 479.066574,88.5764664 466.348267,88.5454829 L232.04414,88.5454829 C219.325834,88.5764664 209.023334,98.8541745 208.992275,111.541875 L208.992275,260.45479 C209.023334,273.142491 219.325834,283.420199 232.04414,283.451182 L367.643346,283.451182 C370.65503,283.448802 373.543062,284.645871 375.666299,286.776641 L421.883028,332.938517 L421.883028,294.723924 C421.883028,288.498161 426.942181,283.451182 433.182962,283.451182 L466.517766,283.451182 C479.236073,283.420199 489.538573,273.142491 489.569631,260.45479 L489.569631,111.541875 L489.400132,111.541875 Z" id="icon-chat"></path>
        </g>
    </g>
</svg>