<?xml version="1.0" encoding="UTF-8" standalone="no"?>
<svg width="512px" height="512px" viewBox="0 0 512 512" version="1.1" xmlns="http://www.w3.org/2000/svg" xmlns:xlink="http://www.w3.org/1999/xlink">
    <!-- Generator: Sketch 41 (35326) - http://www.bohemiancoding.com/sketch -->
    <title>facebook</title>
    <desc>Created with Sketch.</desc>
    <defs></defs>
    <g id="svg-icons" stroke="none" stroke-width="1" fill="none" fill-rule="evenodd">
        <g id="facebook" fill="#3E3D3F">
            <path d="M443.009391,3 L68.9906093,3 C30.8896819,3 0,33.5395166 0,71.2085321 L0,440.987438 C0,478.661098 30.8896819,509.195971 68.9906093,509.195971 L253.453519,509.195971 L253.77134,328.313184 L206.234421,328.313184 C200.056485,328.313184 195.041804,323.372377 195.023016,317.266021 L194.791305,258.954583 C194.766255,252.81727 199.799723,247.823835 206.007406,247.823835 L253.459782,247.823835 L253.459782,191.482838 C253.459782,126.103816 293.84808,90.5027579 352.839074,90.5027579 L401.251175,90.5027579 C407.440071,90.5027579 412.467276,95.4667838 412.467276,101.591714 L412.467276,150.755227 C412.467276,156.880157 407.446333,161.844183 401.257437,161.844183 L371.546667,161.86121 C339.463983,161.86121 333.250037,176.929745 333.250037,199.053481 L333.250037,247.828479 L403.746773,247.828479 C410.46798,247.828479 415.678363,253.628355 414.883028,260.217647 L407.892535,318.529085 C407.225581,324.110712 402.437915,328.313184 396.75628,328.313184 L333.569424,328.313184 L333.250037,509.202162 L443.009391,509.202162 C481.110318,509.202162 512,478.661098 512,440.992082 L512,71.2085321 C512,33.5395166 481.110318,3 443.009391,3 L443.009391,3 Z" id="Fill-1"></path>
        </g>
    </g>
</svg>