<?xml version="1.0" encoding="UTF-8" standalone="no"?>
<svg width="512px" height="512px" viewBox="0 0 512 512" version="1.1" xmlns="http://www.w3.org/2000/svg" xmlns:xlink="http://www.w3.org/1999/xlink">
    <!-- Generator: Sketch 41 (35326) - http://www.bohemiancoding.com/sketch -->
    <title>factual_basic_uncertain</title>
    <desc>Created with Sketch.</desc>
    <defs></defs>
    <g id="svg-icons" stroke="none" stroke-width="1" fill="none" fill-rule="evenodd">
        <g id="factual_basic_uncertain" fill="#3E3D3F">
            <g id="factual-basic-uncertain-icon">
                <path d="M256,512 C397.384896,512 512,397.384896 512,256 C512,114.615104 397.384896,0 256,0 C114.615104,0 0,114.615104 0,256 C0,397.384896 114.615104,512 256,512 Z M256,472.615385 C136.366627,472.615385 39.3846154,375.633373 39.3846154,256 C39.3846154,136.366627 136.366627,39.3846154 256,39.3846154 C375.633373,39.3846154 472.615385,136.366627 472.615385,256 C472.615385,375.633373 375.633373,472.615385 256,472.615385 Z" id="Oval-5"></path>
                <g id="Group-6" transform="translate(176.538462, 177.230769)">
                    <path d="M6.46005108,33.616872 L124.90324,152.060061 C132.593564,159.750385 145.062044,159.750385 152.752369,152.060061 C160.442693,144.369736 160.442693,131.901257 152.752369,124.210932 L34.3091797,5.76774339 C26.6188552,-1.92258113 14.1503756,-1.92258113 6.46005108,5.76774339 C-1.23027344,13.4580679 -1.23027344,25.9265475 6.46005108,33.616872 Z" id="Line"></path>
                    <path d="M124.613897,5.76774339 L6.1707084,124.210932 C-1.51961612,131.901257 -1.51961612,144.369736 6.1707084,152.060061 C13.8610329,159.750385 26.3295125,159.750385 34.019837,152.060061 L152.463026,33.616872 C160.15335,25.9265475 160.15335,13.4580679 152.463026,5.76774339 C144.772701,-1.92258113 132.304222,-1.92258113 124.613897,5.76774339 Z" id="Line-Copy-8"></path>
                </g>
            </g>
        </g>
    </g>
</svg>