<?xml version="1.0" encoding="UTF-8" standalone="no"?>
<svg width="512px" height="512px" viewBox="0 0 512 512" version="1.1" xmlns="http://www.w3.org/2000/svg" xmlns:xlink="http://www.w3.org/1999/xlink">
    <!-- Generator: Sketch 41 (35326) - http://www.bohemiancoding.com/sketch -->
    <title>category</title>
    <desc>Created with Sketch.</desc>
    <defs></defs>
    <g id="svg-icons" stroke="none" stroke-width="1" fill="none" fill-rule="evenodd">
        <g id="category" fill="#3E3D3F">
            <g id="category-icon" transform="translate(15.000000, 0.000000)">
                <path d="M334.825082,0.431934156 C347.092114,0.431934156 356.725516,10.1820576 356.725516,21.9390947 C356.725516,33.9858436 347.08675,43.4462551 334.825082,43.4462551 L147.62813,43.4462551 C135.656107,43.4462551 125.727695,33.9805761 125.727695,21.9390947 C125.727695,10.1820576 135.656107,0.431934156 147.62813,0.431934156 L334.825082,0.431934156 L334.825082,0.431934156 Z" id="Shape"></path>
                <path d="M410.46016,105.434074 C410.46016,117.480823 400.531749,126.941235 388.559726,126.941235 L94.1831314,126.941235 C81.916099,126.941235 72.2826971,117.475556 72.2826971,105.434074 C72.2826971,93.677037 81.9214629,83.9269136 94.1831314,83.9269136 L388.559726,83.9269136 C400.531749,83.9216461 410.46016,93.6717695 410.46016,105.434074 L410.46016,105.434074 Z" id="Shape"></path>
                <path d="M0.439832381,246.281481 C0.439832381,202.977449 36.3612648,167.411358 80.7521524,167.411358 L401.996069,167.411358 C446.386956,167.411358 482.308389,202.972181 482.308389,246.281481 L482.308389,432.697942 C482.308389,476.291687 446.386956,511.568066 401.996069,511.568066 L80.7467886,511.568066 C36.355901,511.568066 0.434468571,476.291687 0.434468571,432.697942 L0.434468571,246.281481 L0.439832381,246.281481 Z M401.996069,210.436214 L80.7467886,210.436214 C60.5949562,210.720658 44.240701,226.49679 44.240701,246.286749 L44.240701,432.70321 C44.240701,452.493169 60.5949562,468.553745 80.7467886,468.553745 L401.990705,468.553745 C422.142537,468.553745 438.496792,452.493169 438.496792,432.70321 L438.496792,246.286749 C438.496792,226.49679 422.142537,210.720658 401.996069,210.436214 L401.996069,210.436214 Z" id="Shape"></path>
            </g>
        </g>
    </g>
</svg>