<?xml version="1.0" encoding="UTF-8" standalone="no"?>
<svg width="512px" height="512px" viewBox="0 0 512 512" version="1.1" xmlns="http://www.w3.org/2000/svg" xmlns:xlink="http://www.w3.org/1999/xlink">
    <!-- Generator: Sketch 41 (35326) - http://www.bohemiancoding.com/sketch -->
    <title>dollar</title>
    <desc>Created with Sketch.</desc>
    <defs></defs>
    <g id="svg-icons" stroke="none" stroke-width="1" fill="none" fill-rule="evenodd">
        <g id="dollar" fill="#3E3D3F">
            <path d="M260.060435,398.910399 C243.336685,398.910399 228.564899,394.795994 216.152875,386.680518 C212.020256,383.577006 207.783411,380.075815 203.556685,376.270042 C194.991923,367.475577 188.118054,356.363851 183.128351,343.245518 L181.578113,339.171589 L118.999899,368.436887 L120.118054,371.844982 C124.25472,384.464446 134.39603,408.742065 155.831208,429.553911 C176.887935,450.000458 203.442339,462.263732 234.803292,466.039149 L234.803292,502.502125 C234.803292,506.968673 238.431982,510.603435 242.89347,510.603435 L278.405256,510.603435 C282.866744,510.603435 286.496446,506.971708 286.496446,502.507185 L286.496446,465.293375 C317.926208,460.103315 344.411804,446.028732 363.265613,424.457958 C382.42097,402.542125 392.546089,374.346411 392.546089,342.918673 C392.546089,309.452958 380.494304,282.32278 355.702637,259.979923 C334.291744,240.684923 307.023946,227.85903 280.653708,215.455101 C240.477042,196.55778 205.780851,180.23778 205.780851,146.905637 C205.780851,133.885458 210.609661,122.181768 219.378827,113.951946 C228.872518,105.042125 242.53222,100.33272 258.881565,100.33272 C288.24097,100.33272 309.591149,115.360518 324.152458,146.276232 L325.840315,149.861411 L387.112161,122.580458 L385.82097,119.033732 C379.643292,102.061054 354.409423,46.5135536 286.496446,34.5700417 L286.496446,7.07254167 C286.496446,3.72414881 283.776446,1.00010119 280.433113,1.00010119 L240.865613,1.00010119 C237.523292,1.00010119 234.803292,3.72414881 234.803292,7.07254167 L234.803292,34.4617679 C172.395077,43.4009345 132.288232,87.4299226 132.288232,147.494565 C132.288232,223.185042 190.503113,250.785756 241.865375,275.137244 C282.651208,294.474744 317.874601,311.174208 317.874601,347.627065 C317.874601,379.26022 295.721982,398.910399 260.060435,398.910399" id="Fill-1"></path>
        </g>
    </g>
</svg>