<?xml version="1.0" encoding="UTF-8" standalone="no"?>
<svg width="512px" height="512px" viewBox="0 0 512 512" version="1.1" xmlns="http://www.w3.org/2000/svg" xmlns:xlink="http://www.w3.org/1999/xlink">
    <!-- Generator: Sketch 41 (35326) - http://www.bohemiancoding.com/sketch -->
    <title>instagram</title>
    <desc>Created with Sketch.</desc>
    <defs>
        <path d="M0.0695863278,146.307222 C2.52908494,65.3248281 69.8733075,0.198520732 152.305915,0.198520732 L358.954114,0.198520732 C442.933214,0.198520732 511.260029,67.7988465 511.260029,150.895264 L511.260029,355.360144 C511.260029,438.451972 442.933214,506.056887 358.954114,506.056887 L152.305915,506.056887 C69.8733075,506.056887 2.52908494,440.926158 0.0695863278,359.947941 L0.0695863278,146.307222 L0.0695863278,146.307222 L0.0695863278,146.307222 Z M459.826455,355.360144 C459.826455,410.481204 414.663768,455.166729 358.954114,455.166729 L152.305915,455.166729 C96.596261,455.166729 51.4335745,410.481204 51.4335745,355.360144 L51.4335745,150.895264 C51.4335745,95.7742045 96.596261,51.0875318 152.305915,51.0875318 L358.954114,51.0875318 C414.663768,51.0875318 459.826455,95.7742045 459.826455,150.895264 L459.826455,355.360144 L459.826455,355.360144 Z" id="path-1"></path>
        <path d="M255.630014,122.292214 C182.71862,122.292214 123.397435,180.986647 123.397435,253.127704 C123.397435,325.264171 182.71862,383.958604 255.630014,383.958604 C328.541409,383.958604 387.857955,325.268761 387.857955,253.127704 C387.857955,180.986647 328.541409,122.292214 255.630014,122.292214 L255.630014,122.292214 Z M255.630014,333.068446 C211.006622,333.068446 174.83101,297.279633 174.83101,253.127704 C174.83101,208.974628 211.006622,173.182372 255.630014,173.182372 C300.254567,173.182372 336.42438,208.974628 336.42438,253.127704 C336.42438,297.279633 300.254567,333.068446 255.630014,333.068446 L255.630014,333.068446 Z" id="path-3"></path>
        <path d="M419.796919,123.27908 C419.796919,140.590547 405.611746,154.62929 388.111945,154.62929 C370.615622,154.62929 356.42581,140.590547 356.42581,123.27908 C356.42581,105.963023 370.615622,91.9277218 388.111945,91.9277218 C405.611746,91.9277218 419.796919,105.963023 419.796919,123.27908 L419.796919,123.27908 Z" id="path-5"></path>
    </defs>
    <g id="svg-icons" stroke="none" stroke-width="1" fill="none" fill-rule="evenodd">
        <g id="instagram">
            <g transform="translate(0.000000, 3.000000)">
                <mask id="mask-2" fill="white">
                    <use xlink:href="#path-1"></use>
                </mask>
                <use id="Clip-2" fill="#3E3D3F" xlink:href="#path-1"></use>
                <mask id="mask-4" fill="white">
                    <use xlink:href="#path-3"></use>
                </mask>
                <use id="Clip-5" fill="#3E3D3F" xlink:href="#path-3"></use>
                <mask id="mask-6" fill="white">
                    <use xlink:href="#path-5"></use>
                </mask>
                <use id="Clip-8" fill="#3E3D3F" xlink:href="#path-5"></use>
            </g>
        </g>
    </g>
</svg>