<?xml version="1.0" encoding="UTF-8" standalone="no"?>
<svg width="512px" height="512px" viewBox="0 0 512 512" version="1.1" xmlns="http://www.w3.org/2000/svg" xmlns:xlink="http://www.w3.org/1999/xlink">
    <!-- Generator: Sketch 41 (35326) - http://www.bohemiancoding.com/sketch -->
    <title>resolved_outside_ca</title>
    <desc>Created with Sketch.</desc>
    <defs></defs>
    <g id="svg-icons" stroke="none" stroke-width="1" fill="none" fill-rule="evenodd">
        <g id="resolved_outside_ca" fill="#3E3D3F">
            <g id="resolved-outside-icon">
                <path d="M256,512 C397.384896,512 512,397.384896 512,256 C512,114.615104 397.384896,0 256,0 C114.615104,0 0,114.615104 0,256 C0,397.384896 114.615104,512 256,512 Z M256,472.615385 C136.366627,472.615385 39.3846154,375.633373 39.3846154,256 C39.3846154,136.366627 136.366627,39.3846154 256,39.3846154 C375.633373,39.3846154 472.615385,136.366627 472.615385,256 C472.615385,375.633373 375.633373,472.615385 256,472.615385 Z" id="Oval-5"></path>
                <path d="M170.540649,255.544633 C161.383573,249.676913 149.203569,252.343465 143.33585,261.500541 C137.468131,270.657618 140.134682,282.837622 149.291759,288.705341 L221.647753,335.06999 C229.256213,339.945378 239.206456,339.016719 245.781328,332.817595 L374.716402,211.251036 C382.629515,203.790149 382.996117,191.32706 375.535231,183.413947 C368.074345,175.500834 355.611256,175.134232 347.698143,182.595118 L229.950508,293.61359 L170.540649,255.544633 Z" id="Path-2-Copy"></path>
            </g>
        </g>
    </g>
</svg>