<?xml version="1.0" encoding="UTF-8" standalone="no"?>
<svg width="512px" height="512px" viewBox="0 0 512 512" version="1.1" xmlns="http://www.w3.org/2000/svg" xmlns:xlink="http://www.w3.org/1999/xlink">
    <!-- Generator: Sketch 41 (35326) - http://www.bohemiancoding.com/sketch -->
    <title>search01</title>
    <desc>Created with Sketch.</desc>
    <defs></defs>
    <g id="svg-icons" stroke="none" stroke-width="1" fill="none" fill-rule="evenodd">
        <g id="search01" fill="#3E3D3F">
            <path d="M354.461536,216.615385 C354.461536,178.666477 340.974496,146.205263 314,119.230769 C287.025504,92.2562755 254.564288,78.7692307 216.615392,78.7692307 C178.666464,78.7692307 146.205248,92.2562755 119.230784,119.230769 C92.256288,146.205263 78.769216,178.666477 78.769216,216.615385 C78.769216,254.564292 92.256288,287.025506 119.230784,314 C146.205248,340.974493 178.666464,354.461539 216.615392,354.461539 C254.564288,354.461539 287.025504,340.974493 314,314 C340.974496,287.025506 354.461536,254.564292 354.461536,216.615385 L354.461536,216.615385 L354.461536,216.615385 L354.461536,216.615385 Z M512,472.615386 C512,483.282106 508.102592,492.512781 500.30768,500.307693 C492.512768,508.102602 483.282112,512 472.615392,512 C461.5384,512 452.307744,508.102602 444.923072,500.307693 L339.384608,395.076922 C302.666496,420.512947 261.743808,433.230768 216.615392,433.230768 C187.28192,433.230768 159.230912,427.538518 132.461536,416.153846 C105.69216,404.769174 82.615488,389.384714 63.230784,370 C43.846048,350.615286 28.4616,327.538595 17.076928,300.769232 C5.692256,273.999866 0,245.948865 0,216.615385 C0,187.281905 5.692256,159.230903 17.076928,132.461539 C28.4616,105.692174 43.846048,82.6154816 63.230784,63.2307693 C82.615488,43.846057 105.69216,28.4615955 132.461536,17.0769232 C159.230912,5.69225088 187.28192,0 216.615392,0 C245.948864,0 273.999872,5.69225088 300.769216,17.0769232 C327.538592,28.4615955 350.615296,43.846057 370,63.2307693 C389.384704,82.6154816 404.769184,105.692174 416.153856,132.461539 C427.538528,159.230903 433.230784,187.281905 433.230784,216.615385 C433.230784,261.743815 420.51296,302.666483 395.076928,339.384614 L500.615392,444.923078 C508.205152,452.512858 512,461.743536 512,472.615386 L512,472.615386 L512,472.615386 L512,472.615386 Z"></path>
        </g>
    </g>
</svg>