<?xml version="1.0" encoding="UTF-8" standalone="no"?>
<svg width="512px" height="512px" viewBox="0 0 512 512" version="1.1" xmlns="http://www.w3.org/2000/svg" xmlns:xlink="http://www.w3.org/1999/xlink">
    <!-- Generator: Sketch 41 (35326) - http://www.bohemiancoding.com/sketch -->
    <title>twitter</title>
    <desc>Created with Sketch.</desc>
    <defs></defs>
    <g id="svg-icons" stroke="none" stroke-width="1" fill="none" fill-rule="evenodd">
        <g id="twitter" fill="#3E3D3F">
            <path d="M503.858282,94.9117997 C492.478379,99.8938709 480.672489,103.823761 468.554523,106.664496 C481.909876,94.1415352 491.947847,78.4712729 497.610492,60.9831863 C499.227053,55.994953 493.73449,51.6737688 489.168797,54.3465868 C472.310374,64.2213785 454.152149,71.6220804 435.195005,76.3592075 C434.098053,76.6349622 432.965212,76.7736098 431.824569,76.7736098 C428.368311,76.7736098 425.0166,75.5103759 422.371744,73.2119065 C402.208421,55.6637392 376.266984,46 349.337822,46 C337.68329,46 325.919532,47.7931759 314.369546,51.3317713 C278.577385,62.289555 250.960093,91.4394471 242.292142,127.400018 C239.043416,140.88581 238.166478,154.390089 239.678493,167.526181 C239.848576,169.03744 239.129237,170.089621 238.684527,170.584131 C237.898092,171.449908 236.788656,171.94904 235.637091,171.94904 C235.509139,171.94904 235.374946,171.944418 235.246994,171.932094 C156.898394,164.740904 86.2471836,127.478585 36.3101132,67.000493 C33.7682425,63.9148132 28.8795495,64.2937834 26.8494858,67.7291633 C17.0720998,84.2960135 11.9040975,103.2399 11.9040975,122.519622 C11.9040975,152.060809 23.9300014,179.904332 44.8126628,200.202344 C36.0292435,198.144197 27.5266938,194.907545 19.6326951,190.574037 C15.811307,188.480458 11.1114208,191.176384 11.0568073,195.491406 C10.5137925,239.377999 36.5410505,278.433494 75.532005,296.017093 C74.7455698,296.034039 73.9591347,296.040201 73.17426,296.040201 C66.9935664,296.040201 60.7332931,295.456341 54.5775657,294.28862 C50.2740179,293.482923 46.6586008,297.508325 47.9942923,301.624619 C60.6537133,340.636979 94.671714,369.389414 135.382215,375.913555 C101.595152,398.305146 62.2453083,410.117923 21.2960678,410.117923 L8.53366121,410.111761 C4.595244,410.111761 1.26693818,412.645932 0.26829039,416.406363 C-0.719434687,420.106714 1.09685597,424.018118 4.45480916,425.943779 C50.5970181,452.457826 103.235119,466.467398 156.690862,466.467398 C203.483753,466.467398 247.254173,457.30279 286.788142,439.220059 C323.031255,422.647047 355.055081,398.955249 381.978001,368.800932 C407.059664,340.709384 426.66905,308.285867 440.266264,272.420809 C453.225279,238.241089 460.076939,201.761359 460.076939,166.94232 L460.076939,165.28163 C460.076939,159.691049 462.635974,154.431683 467.104923,150.845331 C484.06165,137.251702 498.830715,121.250226 510.995493,103.287657 C514.20833,98.5459079 509.143313,92.601006 503.858282,94.9117997 L503.858282,94.9117997 Z"></path>
        </g>
    </g>
</svg>