<?xml version="1.0" encoding="UTF-8" standalone="no"?>
<svg width="512px" height="512px" viewBox="0 0 512 512" version="1.1" xmlns="http://www.w3.org/2000/svg" xmlns:xlink="http://www.w3.org/1999/xlink">
    <!-- Generator: Sketch 41 (35326) - http://www.bohemiancoding.com/sketch -->
    <title>ln</title>
    <desc>Created with Sketch.</desc>
    <defs></defs>
    <g id="svg-icons" stroke="none" stroke-width="1" fill="none" fill-rule="evenodd">
        <g id="ln" fill="#3E3D3F">
            <path d="M405.912058,511.066092 L405.912058,345.049094 C405.912058,305.467303 405.236465,254.539527 350.791633,254.539527 C295.571855,254.539527 287.146816,297.678115 287.146816,342.2275 L287.146816,511.066092 L181.178096,511.066092 L181.178096,169.693018 L282.874685,169.693018 L282.874685,216.368533 L284.345093,216.368533 C298.492801,189.523654 333.106997,161.228238 384.710366,161.228238 C492.149494,161.228238 512,231.907168 512,323.847402 L512,511.066092 L405.912058,511.066092 Z M0,61.5186867 C0,27.5602127 27.4807312,0 61.5584274,0 C95.4970311,0 123.037373,27.5602127 123.037373,61.5186867 C123.037373,95.4970311 95.4970311,123.057244 61.5584274,123.057244 C27.4807312,123.057244 0,95.4970311 0,61.5186867 Z M8.42503978,511.066092 L114.632204,511.066092 L114.632204,169.693018 L8.42503978,169.693018 L8.42503978,511.066092 Z" id="in"></path>
        </g>
    </g>
</svg>