<?xml version="1.0" encoding="UTF-8" standalone="no"?>
<svg width="512px" height="512px" viewBox="0 0 512 512" version="1.1" xmlns="http://www.w3.org/2000/svg" xmlns:xlink="http://www.w3.org/1999/xlink">
    <!-- Generator: Sketch 41 (35326) - http://www.bohemiancoding.com/sketch -->
    <title>thumbs_up</title>
    <desc>Created with Sketch.</desc>
    <defs></defs>
    <g id="svg-icons" stroke="none" stroke-width="1" fill="none" fill-rule="evenodd">
        <g id="thumbs_up" fill="#3E3D3F">
            <path d="M511.943862,303.021273 C511.281628,287.734926 503.796047,275.768583 497.626671,268.427114 C504.785955,252.133829 507.539526,226.490229 483.638532,206.579008 C466.123069,191.994123 436.387259,185.458456 395.191088,187.26491 C366.224901,188.472984 341.990726,193.403333 341.002194,193.60447 C335.387663,194.508325 329.545963,195.613317 323.59825,196.821391 C323.157679,190.383777 324.373381,174.394711 337.366104,138.390085 C352.784723,95.5506008 351.909087,62.7628957 334.505144,40.8428276 C316.220058,17.8114824 287.032208,16 278.438314,16 C270.177602,16 262.579124,19.1176102 257.184879,24.8487331 C244.960402,37.8220142 246.390882,61.7559579 247.928751,72.8197027 C233.392651,108.422057 192.642559,195.716399 158.163724,219.949533 C157.50149,220.353062 156.953529,220.858417 156.405569,221.358743 C146.266921,231.11636 139.442196,241.67475 134.817574,250.925755 C128.315017,247.708834 120.936825,245.897352 113.003787,245.897352 L45.820793,245.897352 C20.4851891,245.897352 0,264.704838 0,287.734926 L0,451.158041 C0,474.28744 20.5980855,492.995615 45.820793,492.995615 L113.003787,492.995615 C122.807876,492.995615 131.951107,490.177195 139.442196,485.349928 L165.321631,488.169605 C169.290903,488.669931 239.780935,496.815945 312.143396,495.509817 C325.249016,496.413673 337.58639,496.915256 349.04262,496.915256 C368.758186,496.915256 385.940468,495.509817 400.257658,492.691397 C433.961364,486.155729 456.985345,473.084394 468.654977,453.873379 C477.577923,439.191698 477.577923,424.606813 476.147443,415.355808 C498.06862,397.254812 501.919488,377.239252 501.149865,363.160979 C500.709294,355.014965 498.723969,348.075769 496.632632,342.944283 C507.42663,330.373274 512.604719,316.89841 511.943862,303.021273 Z" id="like"></path>
        </g>
    </g>
</svg>