<?xml version="1.0" encoding="UTF-8" standalone="no"?>
<svg width="512px" height="512px" viewBox="0 0 512 512" version="1.1" xmlns="http://www.w3.org/2000/svg" xmlns:xlink="http://www.w3.org/1999/xlink">
    <!-- Generator: Sketch 41 (35326) - http://www.bohemiancoding.com/sketch -->
    <title>insufficient_response</title>
    <desc>Created with Sketch.</desc>
    <defs></defs>
    <g id="svg-icons" stroke="none" stroke-width="1" fill="none" fill-rule="evenodd">
        <g id="insufficient_response" fill="#3E3D3F">
            <g id="insufficient-response-icon">
                <path d="M256,512 C397.384896,512 512,397.384896 512,256 C512,114.615104 397.384896,0 256,0 C114.615104,0 0,114.615104 0,256 C0,397.384896 114.615104,512 256,512 Z M256,472.615385 C136.366627,472.615385 39.3846154,375.633373 39.3846154,256 C39.3846154,136.366627 136.366627,39.3846154 256,39.3846154 C375.633373,39.3846154 472.615385,136.366627 472.615385,256 C472.615385,375.633373 375.633373,472.615385 256,472.615385 Z" id="Oval-5"></path>
                <path d="M249.756098,288.35032 L262.243902,288.35032 C265.756098,288.35032 269.268293,285.203585 269.658537,282.05685 L284.878049,171.527785 L284.878049,127.473496 C284.878049,123.540077 281.365854,120 277.463415,120 L234.536585,120 C230.634146,120 227.121951,123.540077 227.121951,127.473496 L227.121951,172.314469 L242.341463,282.05685 C242.731707,285.203585 246.243902,288.35032 249.756098,288.35032 L249.756098,288.35032 Z M224,343.745967 C224,361.446351 238.439024,376 255.609756,376 C273.560976,376 288,361.446351 288,343.745967 C288,326.045583 273.560976,311.098592 255.609756,311.098592 C238.439024,311.098592 224,326.045583 224,343.745967 L224,343.745967 Z" id="!"></path>
            </g>
        </g>
    </g>
</svg>