<?xml version="1.0" encoding="UTF-8" standalone="no"?>
<svg width="512px" height="512px" viewBox="0 0 512 512" version="1.1" xmlns="http://www.w3.org/2000/svg" xmlns:xlink="http://www.w3.org/1999/xlink">
    <!-- Generator: Sketch 41 (35326) - http://www.bohemiancoding.com/sketch -->
    <title>shield_line</title>
    <desc>Created with Sketch.</desc>
    <defs></defs>
    <g id="svg-icons" stroke="none" stroke-width="1" fill="none" fill-rule="evenodd">
        <g id="shield_line" fill="#3E3D3F">
            <path d="M84.9891229,68.1893709 L84.9891229,270.27128 C84.9891229,397.913145 243.558531,480.010877 256.359424,480.010877 C269.160317,480.010877 427.729725,397.166817 427.729725,270.599137 L427.729725,68.1893709 C349.627376,71.9951497 256.325953,34.4480944 256.325953,34.4480944 C256.325953,34.4480944 162.768479,71.5634986 84.9891229,68.1893709 Z M116.652884,35.4759292 C141.340554,33.4110996 168.22131,28.1215677 195.597091,20.5853496 C208.391992,17.0630696 220.4293,13.2870437 231.315165,9.52204473 C237.748193,7.29710958 242.280987,5.60548632 244.529813,4.71334942 L256.410838,0 L268.268491,4.77184511 C270.474901,5.65976513 274.939425,7.34866163 281.286588,9.5719627 C292.033946,13.3365754 303.931772,17.112738 316.59452,20.6353803 C344.394795,28.3691227 371.719369,33.7310512 396.78793,35.6781348 C407.196948,36.4866067 417.025089,36.6839092 426.172803,36.2381585 L459.718848,34.6035236 L459.718848,270.599137 C459.718848,337.11518 424.699159,396.539839 368.05578,446.71372 C328.46834,481.7797 276.781271,512 256.359424,512 C235.917738,512 184.210203,481.932741 144.680102,446.967689 C88.017785,396.848899 53,337.238995 53,270.27128 L53,34.7824497 L86.3755314,36.2303056 C95.7749682,36.6380604 105.904143,36.3749334 116.652884,35.4759292 Z" id="Combined-Shape"></path>
        </g>
    </g>
</svg>