<?xml version="1.0" encoding="UTF-8" standalone="no"?>
<svg width="512px" height="512px" viewBox="0 0 512 512" version="1.1" xmlns="http://www.w3.org/2000/svg" xmlns:xlink="http://www.w3.org/1999/xlink">
    <!-- Generator: Sketch 41 (35326) - http://www.bohemiancoding.com/sketch -->
    <title>resolution_in_progress</title>
    <desc>Created with Sketch.</desc>
    <defs></defs>
    <g id="svg-icons" stroke="none" stroke-width="1" fill="none" fill-rule="evenodd">
        <g id="resolution_in_progress" fill="#3E3D3F">
            <g id="resolution-in-progress-icon" transform="translate(0.000000, 28.000000)">
                <g id="Group-12">
                    <path d="M279.156695,455.111111 C407.647728,455.111111 512,353.338734 512,227.555556 C512,101.772378 407.647728,0 279.156695,0 C268.68374,0 260.193732,8.49000771 260.193732,18.962963 C260.193732,29.4359182 268.68374,37.9259259 279.156695,37.9259259 C386.911364,37.9259259 474.074074,122.933718 474.074074,227.555556 C474.074074,332.177393 386.911364,417.185185 279.156695,417.185185 C268.68374,417.185185 260.193732,425.675193 260.193732,436.148148 C260.193732,446.621103 268.68374,455.111111 279.156695,455.111111 Z" id="Oval-3"></path>
                    <path d="M270.769231,417.185185 C163.014562,417.185185 75.8518519,332.177393 75.8518519,227.555556 C75.8518519,202.418467 80.8713128,177.992933 90.5051475,155.279786 C94.5946225,145.638262 90.0937976,134.507088 80.4522735,130.417613 C70.8107495,126.328137 59.6795754,130.828962 55.5901004,140.470486 C43.979817,167.843395 37.9259259,197.302638 37.9259259,227.555556 C37.9259259,353.338734 142.278198,455.111111 270.769231,455.111111 C281.242186,455.111111 289.732194,446.621103 289.732194,436.148148 C289.732194,425.675193 281.242186,417.185185 270.769231,417.185185 Z" id="Oval-3-Copy"></path>
                    <path d="M95.0474694,188.234462 C100.892979,196.924273 112.676184,199.230034 121.365995,193.384524 C130.055806,187.539015 132.361567,175.755809 126.516057,167.065999 L89.5529496,112.117429 C83.6985672,103.414429 71.8910975,101.117072 63.2006812,106.990118 L8.35146174,144.057618 C-0.325783801,149.921764 -2.60625201,161.70989 3.25789342,170.387136 C9.12203885,179.064381 20.9101654,181.34485 29.5874109,175.480704 L68.6913328,149.05399 L95.0474694,188.234462 Z" id="Path-3-Copy"></path>
                </g>
                <path d="M280.694251,143.884667 C280.600048,133.412136 272.034017,124.998838 261.561486,125.093041 C251.088954,125.187244 242.675657,133.753275 242.76986,144.225806 L243.533265,229.093492 C243.5894,235.334062 246.712494,241.14748 251.884904,244.639476 L325.16802,294.114359 C333.848033,299.974408 345.635081,297.688375 351.49513,289.008362 C357.355179,280.328349 355.069146,268.5413 346.389133,262.681252 L281.36799,218.784191 L280.694251,143.884667 Z" id="Path-2-Copy"></path>
            </g>
        </g>
    </g>
</svg>