<?xml version="1.0" encoding="UTF-8" standalone="no"?>
<svg width="512px" height="512px" viewBox="0 0 512 512" version="1.1" xmlns="http://www.w3.org/2000/svg" xmlns:xlink="http://www.w3.org/1999/xlink">
    <!-- Generator: Sketch 41 (35326) - http://www.bohemiancoding.com/sketch -->
    <title>location</title>
    <desc>Created with Sketch.</desc>
    <defs></defs>
    <g id="svg-icons" stroke="none" stroke-width="1" fill="none" fill-rule="evenodd">
        <g id="location" fill="#3E3D3F">
            <g id="location-icon" transform="translate(58.000000, 0.000000)">
                <path d="M197.818182,509.506494 C249.68133,509.506494 389.818182,291.38798 389.818182,197.818182 C389.818182,91.7795099 303.856854,5.81818182 197.818182,5.81818182 C91.7795099,5.81818182 5.81818182,91.7795099 5.81818182,197.818182 C5.81818182,291.38798 145.955034,509.506494 197.818182,509.506494 Z M197.818182,474.597403 C190.775604,474.597403 148.864437,427.665556 112.875448,371.64985 C69.3074836,303.837711 40.7272727,237.301539 40.7272727,197.818182 C40.7272727,111.059268 111.059268,40.7272727 197.818182,40.7272727 C284.577095,40.7272727 354.909091,111.059268 354.909091,197.818182 C354.909091,237.301539 326.32888,303.837711 282.760915,371.64985 C246.771927,427.665556 204.86076,474.597403 197.818182,474.597403 Z" id="Oval"></path>
                <path d="M197.818182,273.454545 C239.590992,273.454545 273.454545,239.590992 273.454545,197.818182 C273.454545,156.045372 239.590992,122.181818 197.818182,122.181818 C156.045372,122.181818 122.181818,156.045372 122.181818,197.818182 C122.181818,239.590992 156.045372,273.454545 197.818182,273.454545 Z M197.818182,238.545455 C175.32513,238.545455 157.090909,220.311233 157.090909,197.818182 C157.090909,175.32513 175.32513,157.090909 197.818182,157.090909 C220.311233,157.090909 238.545455,175.32513 238.545455,197.818182 C238.545455,220.311233 220.311233,238.545455 197.818182,238.545455 Z" id="Oval-7"></path>
            </g>
        </g>
    </g>
</svg>