<?xml version="1.0" encoding="UTF-8" standalone="no"?>
<svg width="512px" height="512px" viewBox="0 0 512 512" version="1.1" xmlns="http://www.w3.org/2000/svg" xmlns:xlink="http://www.w3.org/1999/xlink">
    <!-- Generator: Sketch 41 (35326) - http://www.bohemiancoding.com/sketch -->
    <title>google_plus</title>
    <desc>Created with Sketch.</desc>
    <defs></defs>
    <g id="svg-icons" stroke="none" stroke-width="1" fill="none" fill-rule="evenodd">
        <g id="google_plus" fill="#3E3D3F">
            <g id="google-plus" transform="translate(2.000000, 94.000000)">
                <path d="M178.369125,195.811229 L257.799765,195.811229 C243.857071,235.027563 206.093645,263.146262 161.890009,262.823391 C108.250717,262.430152 63.8945354,219.736752 61.8143644,166.405188 C59.5830342,109.240573 105.676852,62.021469 162.643031,62.021469 C188.693707,62.021469 212.464516,71.9007508 230.384496,88.0801445 C234.630819,91.9131954 241.089057,91.9394114 245.264653,88.0263327 L274.441133,60.7106704 C279.003642,56.4374671 279.018897,49.2197962 274.468869,44.9355546 C246.050958,18.1428319 207.925582,1.444638 165.882551,0.630563099 C76.2133087,-1.11486867 0.628211672,72.0345902 0.00554712292,161.268237 C-0.628211672,251.175221 72.4315576,324.250171 162.643031,324.250171 C249.404194,324.250171 320.275623,256.662638 325.021187,171.525581 C325.145997,170.457625 325.231978,134.384449 325.231978,134.384449 L178.369125,134.384449 C172.350496,134.384449 167.470415,139.239923 167.470415,145.228202 L167.470415,184.967475 C167.470415,190.955755 172.350496,195.811229 178.369125,195.811229 L178.369125,195.811229 Z" id="Fill-1"></path>
                <path d="M459.814887,137.995354 L459.814887,99.1667407 C459.814887,93.9180273 455.540829,89.6655208 450.265515,89.6655208 L417.421,89.6655208 C412.1443,89.6655208 407.870241,93.9180273 407.870241,99.1667407 L407.870241,137.995354 L368.851779,137.995354 C363.575078,137.995354 359.295473,142.24786 359.295473,147.497954 L359.295473,180.175472 C359.295473,185.420046 363.575078,189.678072 368.851779,189.678072 L407.870241,189.678072 L407.870241,228.501166 C407.870241,233.749879 412.1443,238.003765 417.421,238.003765 L450.265515,238.003765 C455.540829,238.003765 459.814887,233.749879 459.814887,228.501166 L459.814887,189.678072 L498.840284,189.678072 C504.111437,189.678072 508.391043,185.420046 508.391043,180.175472 L508.391043,147.497954 C508.391043,142.24786 504.111437,137.995354 498.840284,137.995354 L459.814887,137.995354 Z" id="Fill-3"></path>
            </g>
        </g>
    </g>
</svg>