<?xml version="1.0" encoding="UTF-8" standalone="no"?>
<svg width="512px" height="512px" viewBox="0 0 512 512" version="1.1" xmlns="http://www.w3.org/2000/svg" xmlns:xlink="http://www.w3.org/1999/xlink">
    <!-- Generator: Sketch 41 (35326) - http://www.bohemiancoding.com/sketch -->
    <title>no_response_recived</title>
    <desc>Created with Sketch.</desc>
    <defs></defs>
    <g id="svg-icons" stroke="none" stroke-width="1" fill="none" fill-rule="evenodd">
        <g id="no_response_recived" fill="#3E3D3F">
            <g id="no-response-recived-icon">
                <path d="M256,512 C397.384896,512 512,397.384896 512,256 C512,114.615104 397.384896,0 256,0 C114.615104,0 0,114.615104 0,256 C0,397.384896 114.615104,512 256,512 Z M256,472.615385 C136.366627,472.615385 39.3846154,375.633373 39.3846154,256 C39.3846154,136.366627 136.366627,39.3846154 256,39.3846154 C375.633373,39.3846154 472.615385,136.366627 472.615385,256 C472.615385,375.633373 375.633373,472.615385 256,472.615385 Z" id="Oval-5"></path>
                <path d="M233.692899,316.17094 C233.324382,316.17094 233.025641,316.465855 233.025641,316.833098 L233.025641,363.645535 C233.025641,364.011234 233.31906,364.307692 233.692899,364.307692 L278.307101,364.307692 C278.675618,364.307692 278.974359,364.012777 278.974359,363.645535 L278.974359,316.833098 C278.974359,316.467398 278.68094,316.17094 278.307101,316.17094 L233.692899,316.17094 Z M227.599053,222.434624 C227.965555,222.434624 228.278696,222.148275 228.300685,221.775007 C228.300685,221.775007 228.823009,211.894065 229.943715,207.153301 C231.064421,202.412536 232.79215,198.277038 235.126954,194.746681 C237.461759,191.216325 240.450263,188.392082 244.092558,186.273868 C247.734852,184.155654 252.077523,183.096563 257.1207,183.096563 C264.592074,183.096563 270.428997,185.315611 274.631645,189.753773 C278.834292,194.191936 280.935585,201.050811 280.935585,210.330606 C281.122369,215.777441 280.235157,220.316403 278.273921,223.947627 C276.312686,227.578851 273.744439,230.907423 270.569106,233.933442 C267.393772,236.959462 263.938313,239.985437 260.202627,243.011457 C256.46694,246.037476 252.918091,249.618213 249.555972,253.753773 C246.193854,257.889334 243.252045,262.882192 240.730457,268.732497 C238.208868,274.582802 236.66792,281.845141 236.107567,290.519731 L236.107567,303.479975 C236.107567,303.842703 236.412026,304.136752 236.764067,304.136752 L273.274707,304.136752 C273.637282,304.136752 273.931207,303.840955 273.931207,303.485579 L273.931207,292.637934 C274.678344,286.585894 276.499464,281.542604 279.394622,277.507911 C282.289779,273.473217 285.605151,269.892481 289.340838,266.765594 C293.076525,263.638707 297.045633,260.511866 301.24828,257.384979 C305.450928,254.258092 309.279949,250.475624 312.73546,246.037461 C316.19097,241.599299 319.086084,236.253411 321.420888,229.999636 C323.755692,223.745862 324.923077,215.777462 324.923077,206.094199 C324.923077,200.243894 323.755692,193.93978 321.420888,187.181669 C319.086084,180.423558 315.210367,174.119445 309.793621,168.26914 C304.376875,162.418835 297.232481,157.526843 288.360225,153.593017 C279.487969,149.659191 268.421163,147.692308 255.159475,147.692308 C244.886336,147.692308 235.593954,149.558325 227.282051,153.290416 C218.970148,157.022508 211.87245,162.217097 205.988743,168.874341 C200.105036,175.531584 195.528889,183.399118 192.260163,192.477178 C188.991437,201.555237 187.140155,221.7762 187.140155,221.7762 C187.105233,222.139838 187.373231,222.434624 187.740534,222.434624 L227.599053,222.434624 Z" id="?"></path>
            </g>
        </g>
    </g>
</svg>